<?xml version="1.0" encoding="UTF-8" standalone="no"?>
<!-- This Source Code Form is subject to the terms of the Mozilla Public
   - License, v. 2.0. If a copy of the MPL was not distributed with this
   - file, You can obtain one at http://mozilla.org/MPL/2.0/. -->

<svg
   viewBox="0 0 16 16"
   width="16"
   height="16"
   fill="context-fill light-dark(black, white)"
   fill-opacity="context-fill-opacity"
   version="1.1"
   id="svg6"
   sodipodi:docname="owlie.svg"
   inkscape:version="1.2.1 (9c6d41e410, 2022-07-14)"
   xmlns:inkscape="http://www.inkscape.org/namespaces/inkscape"
   xmlns:sodipodi="http://sodipodi.sourceforge.net/DTD/sodipodi-0.dtd"
   xmlns="http://www.w3.org/2000/svg"
   xmlns:svg="http://www.w3.org/2000/svg">
  <sodipodi:namedview
     id="namedview5"
     pagecolor="#ffffff"
     bordercolor="#000000"
     borderopacity="0.25"
     inkscape:showpageshadow="2"
     inkscape:pageopacity="0.0"
     inkscape:pagecheckerboard="0"
     inkscape:deskcolor="#d1d1d1"
     showgrid="true"
     inkscape:zoom="45.254834"
     inkscape:cx="1.2153398"
     inkscape:cy="9.9768348"
     inkscape:window-width="1920"
     inkscape:window-height="991"
     inkscape:window-x="-9"
     inkscape:window-y="-9"
     inkscape:window-maximized="1"
     inkscape:current-layer="svg6">
    <inkscape:grid
       type="xygrid"
       id="grid2781"
       spacingx="0.25"
       spacingy="0.25"
       empspacing="4" />
  </sodipodi:namedview>
  <defs
     id="defs10" />
  <path
     id="path5405"
     style="fill:#2196f3;fill-opacity:1;stroke-width:0.5;stroke-linecap:square"
     d="M 8 0 C 3.5817308 0 0 3.5817308 0 8 L 0 14 C 8.025804e-05 14.5304 0.21084724 15.039053 0.5859375 15.414062 C 0.96094767 15.789153 1.4695986 15.99992 2 16 L 14 16 C 14.5304 15.99992 15.039053 15.789153 15.414062 15.414062 C 15.789153 15.039053 15.99992 14.5304 16 14 L 16 8 C 16 3.5817308 12.41827 0 8 0 z M 8 1.25 C 10.475092 1.2505496 12.751389 2.6056851 13.931641 4.78125 C 12.827692 4.0445857 11.46047 3.8176638 10.177734 4.1582031 C 9.3450846 4.3837694 8.5921112 4.8377179 8.0039062 5.46875 C 7.4135615 4.8364781 6.6577262 4.3824357 5.8222656 4.1582031 C 5.3882063 4.0416773 4.9394771 3.9890405 4.4902344 4.0019531 C 3.6351491 4.0310431 2.8048876 4.2967538 2.0917969 4.7695312 C 3.2711234 2.6058621 5.5358107 1.2567823 8 1.25 z M 4.6347656 5.25 C 4.714946 5.2502495 4.7961841 5.2537367 4.8769531 5.2597656 C 5.0868195 5.2754803 5.2947572 5.3107903 5.4980469 5.3652344 C 6.9736397 5.7603916 7.9998374 7.0974125 8 8.625 C 8.0001626 7.0974125 9.0263605 5.7603916 10.501953 5.3652344 C 11.976943 4.9705551 13.533193 5.6153217 14.296875 6.9375 C 15.061073 8.2601836 14.841575 9.9312547 13.761719 11.011719 C 12.736105 12.027839 11.177739 12.279061 9.8847656 11.636719 C 9.8584778 11.600389 9.8283567 11.566989 9.7949219 11.537109 L 8.4628906 10.205078 C 8.3444281 10.074487 8.1763161 10.000007 8 10 C 7.8343488 10.000284 7.6755847 10.06632 7.5585938 10.183594 C 7.5478118 10.193634 7.5373886 10.204064 7.5273438 10.214844 L 6.2148438 11.527344 L 6.1835938 11.558594 C 6.1600318 11.582854 6.1384756 11.608969 6.1191406 11.636719 C 4.82516 12.280951 3.2645798 12.029625 2.2382812 11.011719 C 1.1584252 9.9312497 0.93892696 8.2601836 1.703125 6.9375 C 2.3107226 5.8854447 3.4320596 5.2462577 4.6347656 5.25 z M 4.875 7.125 A 1.875 1.875 0 0 0 3.9375 7.3769531 A 1.875 1.875 0 0 0 3 9 A 1.875 1.875 0 0 0 3.9375 10.623047 A 1.875 1.875 0 0 0 5.8125 10.623047 A 1.875 1.875 0 0 0 6.75 9 A 1.875 1.875 0 0 0 5.8125 7.3769531 A 1.875 1.875 0 0 0 4.875 7.125 z M 11.125 7.125 A 1.875 1.875 0 0 0 10.1875 7.3769531 A 1.875 1.875 0 0 0 9.25 9 A 1.875 1.875 0 0 0 10.1875 10.623047 A 1.875 1.875 0 0 0 12.0625 10.623047 A 1.875 1.875 0 0 0 13 9 A 1.875 1.875 0 0 0 12.0625 7.3769531 A 1.875 1.875 0 0 0 11.125 7.125 z M 4.8105469 8.3789062 A 0.625 0.625 0 0 1 5.1875 8.4589844 A 0.625 0.625 0 0 1 5.5 9 A 0.625 0.625 0 0 1 5.1875 9.5410156 A 0.625 0.625 0 0 1 4.5625 9.5410156 A 0.625 0.625 0 0 1 4.25 9 A 0.625 0.625 0 0 1 4.5625 8.4589844 A 0.625 0.625 0 0 1 4.8105469 8.3789062 z M 11.060547 8.3789062 A 0.625 0.625 0 0 1 11.4375 8.4589844 A 0.625 0.625 0 0 1 11.75 9 A 0.625 0.625 0 0 1 11.4375 9.5410156 A 0.625 0.625 0 0 1 10.8125 9.5410156 A 0.625 0.625 0 0 1 10.5 9 A 0.625 0.625 0 0 1 10.8125 8.4589844 A 0.625 0.625 0 0 1 11.060547 8.3789062 z M 8 11.507812 L 8.4921875 12 L 8 12.492188 L 7.5078125 12 L 8 11.507812 z M 1.25 11.769531 C 1.284417 11.811811 1.319578 11.853491 1.3554688 11.894531 C 2.7264896 13.256819 4.8000548 13.622924 6.5546875 12.8125 L 7.5273438 13.785156 C 7.6462895 13.921919 7.818749 14.000309 8 14 C 8.1656512 13.999716 8.3244153 13.933682 8.4414062 13.816406 L 9.4453125 12.8125 C 11.199945 13.622924 13.273511 13.256819 14.644531 11.894531 C 14.680301 11.858011 14.715461 11.820891 14.75 11.783203 L 14.75 14 C 14.750488 14.199099 14.67179 14.390222 14.53125 14.53125 C 14.390222 14.671791 14.199099 14.750488 14 14.75 L 2 14.75 C 1.8009014 14.750488 1.6097781 14.671791 1.46875 14.53125 C 1.3282096 14.390222 1.2495118 14.199099 1.25 14 L 1.25 11.769531 z " />
</svg>
