<?xml version="1.0" encoding="UTF-8" standalone="no"?>
<!-- This Source Code Form is subject to the terms of the Mozilla Public
   - License, v. 2.0. If a copy of the MPL was not distributed with this
   - file, You can obtain one at http://mozilla.org/MPL/2.0/. -->

<svg
   viewBox="0 0 16 16"
   width="16"
   height="16"
   fill="context-fill light-dark(black, white)"
   fill-opacity="context-fill-opacity"
   version="1.1"
   id="svg6"
   xmlns="http://www.w3.org/2000/svg"
   xmlns:svg="http://www.w3.org/2000/svg">
  <defs
     id="defs10" />
  <path
     id="path5405"
     style="fill:#9e9e9e;fill-opacity:1;stroke-width:0.5;stroke-linecap:square"
     d="M 8 0 C 3.5817264 0 0 3.5817264 0 8 L 0 14 C 8.025812e-05 14.530401 0.21084686 15.039052 0.5859375 15.414062 C 0.96094805 15.789153 1.4695981 15.99992 2 16 L 14 16 C 14.530401 15.99992 15.039052 15.789153 15.414062 15.414062 C 15.789153 15.039052 15.99992 14.530401 16 14 L 16 8 C 16 3.5817264 12.418274 0 8 0 z M 8 1.25 C 10.475094 1.2505496 12.751388 2.6056829 13.931641 4.78125 C 12.827691 4.044585 11.460471 3.8176634 10.177734 4.1582031 C 9.3450834 4.3837696 8.5921117 4.8377173 8.0039062 5.46875 C 7.4135609 4.8364775 6.657727 4.3824359 5.8222656 4.1582031 C 5.3882058 4.0416772 4.9394776 3.9890405 4.4902344 4.0019531 C 3.6351483 4.0310431 2.8048883 4.2967533 2.0917969 4.7695312 C 3.2711246 2.6058599 5.5358082 1.2567823 8 1.25 z M 4.6347656 5.25 C 4.7149461 5.2502495 4.796184 5.2537367 4.8769531 5.2597656 C 5.0868197 5.2754803 5.294757 5.3107903 5.4980469 5.3652344 C 6.9736412 5.760392 7.9998374 7.097411 8 8.625 C 8.0001626 7.097411 9.0263589 5.760392 10.501953 5.3652344 C 11.976944 4.9705547 13.533192 5.6153204 14.296875 6.9375 C 15.061074 8.2601849 14.841576 9.9312539 13.761719 11.011719 C 12.736104 12.02784 11.17774 12.279062 9.8847656 11.636719 C 9.8584777 11.600389 9.8283568 11.566989 9.7949219 11.537109 L 8.4628906 10.205078 C 8.344428 10.074487 8.1763163 10.000007 8 10 C 7.8343486 10.000284 7.6755849 10.06632 7.5585938 10.183594 C 7.5478118 10.193634 7.5373887 10.204064 7.5273438 10.214844 L 6.2148438 11.527344 L 6.1835938 11.558594 C 6.1600318 11.582854 6.1384756 11.608969 6.1191406 11.636719 C 4.8251587 12.280952 3.2645808 12.029626 2.2382812 11.011719 C 1.1584241 9.9312489 0.9389262 8.2601849 1.703125 6.9375 C 2.3107232 5.8854436 3.4320584 5.2462577 4.6347656 5.25 z M 3 9 A 1.875 1.875 0 0 0 3.9375 10.623047 A 1.875 1.875 0 0 0 5.8125 10.623047 A 1.875 1.875 0 0 0 6.75 9 L 5.5 9 A 0.625 0.625 0 0 1 5.1875 9.5410156 A 0.625 0.625 0 0 1 4.5625 9.5410156 A 0.625 0.625 0 0 1 4.25 9 L 3 9 z M 9.25 9 A 1.875 1.875 0 0 0 10.1875 10.623047 A 1.875 1.875 0 0 0 12.0625 10.623047 A 1.875 1.875 0 0 0 13 9 L 11.75 9 A 0.625 0.625 0 0 1 11.4375 9.5410156 A 0.625 0.625 0 0 1 10.8125 9.5410156 A 0.625 0.625 0 0 1 10.5 9 L 9.25 9 z M 8 11.507812 L 8.4921875 12 L 8 12.492188 L 7.5078125 12 L 8 11.507812 z M 1.25 11.769531 C 1.284417 11.811811 1.319578 11.853491 1.3554688 11.894531 C 2.726491 13.25682 4.800053 13.622925 6.5546875 12.8125 L 7.5273438 13.785156 C 7.6462897 13.921919 7.8187488 14.000309 8 14 C 8.1656514 13.999716 8.3244151 13.933682 8.4414062 13.816406 L 9.4453125 12.8125 C 11.199947 13.622925 13.273509 13.25682 14.644531 11.894531 C 14.680301 11.858011 14.715461 11.820891 14.75 11.783203 L 14.75 14 C 14.750488 14.199099 14.67179 14.390222 14.53125 14.53125 C 14.390222 14.671791 14.199099 14.750488 14 14.75 L 2 14.75 C 1.8009012 14.750488 1.6097782 14.671791 1.46875 14.53125 C 1.3282095 14.390222 1.2495118 14.199099 1.25 14 L 1.25 11.769531 z " />
</svg>
